<?xml version="1.0" standalone="no"?><!DOCTYPE svg PUBLIC "-//W3C//DTD SVG 1.1//EN" "http://www.w3.org/Graphics/SVG/1.1/DTD/svg11.dtd"><svg t="1754560278226" class="icon" viewBox="0 0 1024 1024" version="1.1" xmlns="http://www.w3.org/2000/svg" p-id="53438" xmlns:xlink="http://www.w3.org/1999/xlink" width="200" height="200"><path d="M511.2 956.8c-243.4 0-441.3-198-441.3-441.3s198-441.3 441.3-441.3 441.3 198 441.3 441.3-198 441.3-441.3 441.3z m0-865.5C277.3 91.3 87 281.6 87 515.5s190.3 424.2 424.2 424.2 424.2-190.3 424.2-424.2S745.1 91.3 511.2 91.3z" fill="#0061b2" p-id="53439"></path><path d="M511.2 914.9c-220.2 0-399.4-179.2-399.4-399.4S291 116.1 511.2 116.1s399.4 179.2 399.4 399.4-179.2 399.4-399.4 399.4z m0-790.3c-215.5 0-390.9 175.3-390.9 390.9s175.3 390.9 390.9 390.9C726.7 906.4 902 731 902 515.5S726.7 124.6 511.2 124.6z" fill="#0061b2" p-id="53440"></path><path d="M523.2 233.2h-17.8c-0.3 0-0.5-0.2-0.5-0.5v-93.1c0-0.3 0.2-0.5 0.5-0.5h17.8c0.3 0 0.5 0.2 0.5 0.5v93.1c0 0.3-0.2 0.5-0.5 0.5z" fill="#0061b2" p-id="53441"></path><path d="M515.2 237.5h-1.7c-7.1 0-12.9-5.8-12.9-12.9v-76.9c0-7.1 5.8-12.9 12.9-12.9h1.7c7.1 0 12.9 5.8 12.9 12.9v76.9c-0.1 7.1-5.9 12.9-12.9 12.9z m-1.7-94c-2.4 0-4.3 1.9-4.3 4.3v76.9c0 2.4 1.9 4.3 4.3 4.3h1.7c2.4 0 4.3-1.9 4.3-4.3v-76.9c0-2.4-1.9-4.3-4.3-4.3h-1.7zM523.2 891.8h-17.8c-0.3 0-0.5-0.2-0.5-0.5v-93.1c0-0.3 0.2-0.5 0.5-0.5h17.8c0.3 0 0.5 0.2 0.5 0.5v93.1c0 0.3-0.2 0.5-0.5 0.5z" fill="#0061b2" p-id="53442"></path><path d="M515.2 896.1h-1.7c-7.1 0-12.9-5.8-12.9-12.9v-76.9c0-7.1 5.8-12.9 12.9-12.9h1.7c7.1 0 12.9 5.8 12.9 12.9v76.9c-0.1 7.1-5.9 12.9-12.9 12.9z m-1.7-94.1c-2.4 0-4.3 1.9-4.3 4.3v76.9c0 2.4 1.9 4.3 4.3 4.3h1.7c2.4 0 4.3-1.9 4.3-4.3v-76.9c0-2.4-1.9-4.3-4.3-4.3h-1.7zM796.6 524.4v-17.8c0-0.3 0.2-0.5 0.5-0.5h93.1c0.3 0 0.5 0.2 0.5 0.5v17.8c0 0.3-0.2 0.5-0.5 0.5h-93.1c-0.3 0-0.5-0.2-0.5-0.5z" fill="#0061b2" p-id="53443"></path><path d="M882.1 529.2h-76.9c-7.1 0-12.9-5.8-12.9-12.9v-1.7c0-7.1 5.8-12.9 12.9-12.9h76.9c7.1 0 12.9 5.8 12.9 12.9v1.7c-0.1 7.1-5.8 12.9-12.9 12.9z m-77-18.8c-2.4 0-4.3 1.9-4.3 4.3v1.7c0 2.4 1.9 4.3 4.3 4.3H882c2.4 0 4.3-1.9 4.3-4.3v-1.7c0-2.4-1.9-4.3-4.3-4.3h-76.9z" fill="#0061b2" p-id="53444"></path><path d="M138 524.4v-17.8c0-0.3 0.2-0.5 0.5-0.5h93.1c0.3 0 0.5 0.2 0.5 0.5v17.8c0 0.3-0.2 0.5-0.5 0.5h-93.1c-0.3 0-0.5-0.2-0.5-0.5z" fill="#0061b2" p-id="53445"></path><path d="M223.5 529.2h-76.9c-7.1 0-12.9-5.8-12.9-12.9v-1.7c0-7.1 5.8-12.9 12.9-12.9h76.9c7.1 0 12.9 5.8 12.9 12.9v1.7c0 7.1-5.8 12.9-12.9 12.9z m-76.9-18.8c-2.4 0-4.3 1.9-4.3 4.3v1.7c0 2.4 1.9 4.3 4.3 4.3h76.9c2.4 0 4.3-1.9 4.3-4.3v-1.7c0-2.4-1.9-4.3-4.3-4.3h-76.9z" fill="#0061b2" p-id="53446"></path><path d="M374.7 352.1L528.5 566" fill="#0061b2" p-id="53447"></path><path d="M528.5 570.3c-1.3 0-2.6-0.6-3.5-1.8L371.2 354.6c-1.4-1.9-0.9-4.6 1-6 1.9-1.4 4.6-1 6 1L532 563.5c1.4 1.9 0.9 4.6-1 6-0.8 0.5-1.6 0.8-2.5 0.8z" fill="#0061b2" p-id="53448"></path><path d="M470.4 534.3h188.2" fill="#0061b2" p-id="53449"></path><path d="M658.6 542.9H470.4c-4.7 0-8.6-3.8-8.6-8.6s3.8-8.6 8.6-8.6h188.2c4.7 0 8.6 3.8 8.6 8.6s-3.9 8.6-8.6 8.6z" fill="#0061b2" p-id="53450"></path></svg>